<svg width="355" height="386" viewBox="0 0 355 386" fill="none" xmlns="http://www.w3.org/2000/svg">
<path d="M105.681 385.644C88.2735 385.644 74.6201 382.231 64.7215 375.404C55.1641 368.577 48.5081 359.703 44.7535 348.78C40.9988 337.516 39.6335 325.399 40.6575 312.428C42.0228 299.116 44.7535 285.975 48.8495 273.004L85.2015 160.876C86.2255 157.463 86.2255 154.561 85.2015 152.172C84.1775 149.783 81.9588 148.588 78.5455 148.588C75.4735 148.588 71.8895 149.612 67.7935 151.66C63.6975 153.708 58.9188 157.292 53.4575 162.412C47.9961 167.191 41.3401 173.847 33.4895 182.38C29.0521 187.159 24.9561 189.889 21.2015 190.572C17.7881 191.255 13.5215 189.719 8.40145 185.964C1.91612 181.185 -0.814546 176.748 0.209455 172.652C1.23345 168.556 3.11079 164.801 5.84145 161.388C13.6921 151.831 21.5428 143.297 29.3935 135.788C37.5855 127.937 46.4601 121.793 56.0175 117.356C65.9161 112.577 77.1801 110.188 89.8095 110.188C102.439 110.188 111.655 112.577 117.457 117.356C123.601 121.793 127.356 127.767 128.721 135.276C130.087 142.444 130.087 150.124 128.721 158.316C127.356 166.508 125.649 174.017 123.601 180.844L93.3935 273.004C90.6628 281.537 88.4441 290.071 86.7375 298.604C85.0308 306.796 84.5188 314.476 85.2015 321.644C85.8841 328.471 88.6148 334.103 93.3935 338.54C98.1721 342.636 105.681 344.684 115.921 344.684C127.185 344.684 138.449 341.1 149.713 333.932C160.977 326.423 171.729 316.524 181.969 304.236C192.551 291.948 201.767 278.295 209.617 263.276C217.809 248.257 224.295 232.727 229.073 216.684C233.852 200.641 236.241 185.452 236.241 171.116C236.241 168.385 236.241 165.313 236.241 161.9C236.241 158.145 236.071 154.22 235.729 150.124C235.388 146.028 234.876 141.932 234.193 137.836C233.169 131.692 233.169 126.572 234.193 122.476C235.217 118.38 237.265 115.308 240.337 113.26C243.751 111.212 248.188 110.188 253.649 110.188C260.135 110.188 265.255 112.065 269.009 115.82C273.105 119.575 276.007 125.889 277.713 134.764C278.396 137.495 278.908 140.567 279.249 143.98C279.591 147.052 279.761 150.295 279.761 153.708C279.761 156.78 279.761 160.023 279.761 163.436C279.761 182.209 276.86 201.836 271.057 222.316C265.255 242.455 256.892 262.252 245.969 281.708C235.388 301.164 222.759 318.743 208.081 334.444C193.745 350.145 177.873 362.604 160.465 371.82C143.057 381.036 124.796 385.644 105.681 385.644Z" fill="white"/>
<path d="M63 38.188C58.5817 38.188 55 41.7697 55 46.188C55 50.6063 58.5817 54.188 63 54.188L63 46.188L63 38.188ZM355 46.188L275 1.47189e-05L275 92.3761L355 46.188ZM63 46.188L63 54.188L283 54.188L283 46.188L283 38.188L63 38.188L63 46.188Z" fill="white"/>
</svg>
